# xmcd
#
# Track frame offsets:
#	150
#	17961
#	35827
#	54663
#	65968
#	83767
#	104809
#	122454
#
# Disc length: 1809 seconds
#
# Revision: 0
# Processed by: cddbd v1.5.1PL2 Copyright (c) Steve Scherf et al.
# Submitted via: EasyCDDAExtractor 4.6.9.1
#
DISCID=74070f08
DTITLE=Sara Evans - Always There (Hallmark)
DYEAR=2006
DGENRE=Country
TTITLE0=Suds In The Bucket
TTITLE1=Born To Fly (Acoustic)
TTITLE2=You Ought To Know By Now
TTITLE3=Even Now
TTITLE4=The Great Unknown
TTITLE5=Brooklyn and Austin
TTITLE6=To Be Happy
TTITLE7=Cryin' Game
EXTD=
EXTT0=
EXTT1=
EXTT2=
EXTT3=
EXTT4=
EXTT5=
EXTT6=
EXTT7=
PLAYORDER=
